<svg width="10" height="18" viewBox="0 0 10 18" fill="none" xmlns="http://www.w3.org/2000/svg">
<path d="M6.57 3.74974C6.1575 4.46224 6.405 5.38474 7.1175 5.79724C7.83 6.20974 8.7525 5.96224 9.165 5.24974C9.5775 4.53724 9.33 3.61474 8.6175 3.20224C7.905 2.78974 6.9825 3.03724 6.57 3.74974Z" fill="#E99D2C"/>
<path d="M7.7475 7.05724C7.7475 7.05724 6.525 6.35224 5.7975 5.93224C4.0125 4.89724 3.3975 2.60224 4.4325 0.817238L3.135 0.0672379C1.9425 2.12224 2.3175 4.65724 3.8625 6.29974L0 12.9897L1.2975 13.7397L2.4225 11.7897L3.72 12.5397L1.47 16.4397L2.7675 17.1897L7.485 9.02224C8.34 10.1847 8.4825 11.7897 7.7175 13.1172L9.015 13.8672C10.215 11.8047 9.975 8.93224 7.7475 7.05724Z" fill="#E99D2C"/>
<path d="M5.43001 2.09974C5.97001 2.40724 6.65251 2.22724 6.96751 1.68724C7.27501 1.14724 7.09501 0.464741 6.55501 0.149741C6.01501 -0.157759 5.33251 0.0222409 5.01751 0.562241C4.71001 1.10224 4.89001 1.79224 5.43001 2.09974Z" fill="#E99D2C"/>
</svg>
